<?xml version="1.0" encoding="iso-8859-1"?>
<!-- Generator: Adobe Illustrator 19.0.0, SVG Export Plug-In . SVG Version: 6.00 Build 0)  -->
<svg version="1.1" id="Capa_1" xmlns="http://www.w3.org/2000/svg" xmlns:xlink="http://www.w3.org/1999/xlink" x="0px" y="0px"
	 viewBox="0 0 512 512" style="enable-background:new 0 0 512 512;" xml:space="preserve">
<path style="fill:#FDCA74;" d="M256,396.675c-85.716,0-102.859,13.109-165.382,13.109c-90.617,0-107.514-112.712-76.027-177.845
	C58.773,140.545,159.377,102.216,256,102.216s197.227,38.329,241.41,129.725c31.486,65.132,14.589,177.845-76.027,177.845
	C358.86,409.786,341.716,396.675,256,396.675z"/>
<path style="fill:#E6B25B;" d="M66.1,231.94c40.265-83.291,127.389-122.504,215.655-128.805c-8.588-0.613-17.187-0.921-25.755-0.921
	c-96.623,0-197.227,38.33-241.41,129.725c-31.486,65.133-14.589,177.845,76.027,177.845c13.075,0,24.162-0.575,34.309-1.481
	C49.477,394.896,36.72,292.714,66.1,231.94z"/>
<g>
	<path style="fill:#3B484A;" d="M164.25,267.598c-4.268,0-7.726-3.459-7.726-7.726v-16.605c0-4.267,3.458-7.726,7.726-7.726
		c4.268,0,7.726,3.459,7.726,7.726v16.605C171.977,264.139,168.518,267.598,164.25,267.598z"/>
	<path style="fill:#3B484A;" d="M347.75,267.598c-4.268,0-7.726-3.459-7.726-7.726v-16.605c0-4.267,3.458-7.726,7.726-7.726
		c4.268,0,7.726,3.459,7.726,7.726v16.605C355.477,264.139,352.018,267.598,347.75,267.598z"/>
	<path style="fill:#3B484A;" d="M256,276.461c-11.055,0-21.43-4.614-28.463-12.661c-2.809-3.213-2.481-8.094,0.732-10.902
		c3.21-2.807,8.093-2.481,10.901,0.732c4.099,4.688,10.233,7.378,16.829,7.378c6.595,0,12.729-2.689,16.828-7.377
		c2.808-3.213,7.69-3.541,10.901-0.732c3.213,2.808,3.542,7.689,0.732,10.902C277.429,271.846,267.056,276.461,256,276.461z"/>
</g>
<g>
</g>
<g>
</g>
<g>
</g>
<g>
</g>
<g>
</g>
<g>
</g>
<g>
</g>
<g>
</g>
<g>
</g>
<g>
</g>
<g>
</g>
<g>
</g>
<g>
</g>
<g>
</g>
<g>
</g>
</svg>
