<svg height="512pt" viewBox="0 -42 512 512" width="512pt" xmlns="http://www.w3.org/2000/svg" xmlns:xlink="http://www.w3.org/1999/xlink"><linearGradient id="a"><stop offset="0" stop-color="#ffd459"/><stop offset=".2296" stop-color="#ffd355"/><stop offset=".4362" stop-color="#ffcf4a"/><stop offset=".634" stop-color="#ffc838"/><stop offset=".825" stop-color="#ffbf1f"/><stop offset="1" stop-color="#ffb400"/></linearGradient><linearGradient id="b" gradientUnits="userSpaceOnUse" x1="256.00011" x2="256.00011" xlink:href="#a" y1="320.006179234" y2="366.230261841"/><linearGradient id="c" gradientUnits="userSpaceOnUse" x1="219.7898481664" x2="299.0752908618" xlink:href="#a" y1="305.249027795" y2="504.987341071"/><linearGradient id="d"><stop offset="0" stop-color="#e58200" stop-opacity="0"/><stop offset=".0396" stop-color="#e27f04" stop-opacity=".039216"/><stop offset=".4671" stop-color="#c15d2f" stop-opacity=".466667"/><stop offset=".8016" stop-color="#ad4949" stop-opacity=".8"/><stop offset="1" stop-color="#a64153"/></linearGradient><linearGradient id="e" gradientUnits="userSpaceOnUse" x1="256.00011" x2="256.00011" xlink:href="#d" y1="410.2043544616" y2="450.6205475142"/><linearGradient id="f" gradientUnits="userSpaceOnUse" x1="200.928964768" x2="277.1531481088" xlink:href="#a" y1="193.092869799" y2="415.039945559"/><linearGradient id="g"><stop offset="0" stop-color="#c6e56f"/><stop offset=".1273" stop-color="#bfe46e"/><stop offset=".312" stop-color="#ace06c"/><stop offset=".5318" stop-color="#8cda69"/><stop offset=".7763" stop-color="#60d264"/><stop offset="1" stop-color="#32c95f"/></linearGradient><linearGradient id="h" gradientUnits="userSpaceOnUse" x1="206.124763079" x2="285.3330041726" xlink:href="#g" y1="202.0336987388" y2="359.4721601136"/><linearGradient id="i"><stop offset="0" stop-color="#ff6e3a"/><stop offset=".1596" stop-color="#ff6440"/><stop offset=".4266" stop-color="#ff4b52"/><stop offset=".7662" stop-color="#ff216e"/><stop offset="1" stop-color="#ff0084"/></linearGradient><linearGradient id="j" gradientUnits="userSpaceOnUse" x1="43.710261919" x2="508.178790907" xlink:href="#i" y1="159.555349506" y2="538.1675655242"/><linearGradient id="k" gradientUnits="userSpaceOnUse" x1="167.5944375034" x2="554.7108767836" xlink:href="#i" y1="112.9455600666" y2="428.504045462"/><linearGradient id="l" gradientUnits="userSpaceOnUse" x1="256.00011" x2="256.00011" xlink:href="#a" y1="259.773871" y2="305.997953607"/><linearGradient id="m" gradientUnits="userSpaceOnUse" x1="219.7898481664" x2="299.0752908618" xlink:href="#a" y1="245.016719561" y2="444.755032837"/><linearGradient id="n" gradientUnits="userSpaceOnUse" x1="256.00011" x2="256.00011" xlink:href="#d" y1="349.9720462276" y2="390.3882392802"/><linearGradient id="o" gradientUnits="userSpaceOnUse" x1="200.928964768" x2="277.1531481088" xlink:href="#a" y1="132.8606619572" y2="354.807637325"/><linearGradient id="p" gradientUnits="userSpaceOnUse" x1="206.124763079" x2="285.3330041726" xlink:href="#g" y1="141.8013905048" y2="299.2398518796"/><linearGradient id="q" gradientUnits="userSpaceOnUse" x1="43.710261919" x2="508.178790907" xlink:href="#i" y1="99.323041272" y2="477.9352572902"/><linearGradient id="r" gradientUnits="userSpaceOnUse" x1="167.5944375034" x2="554.7108767836" xlink:href="#i" y1="52.7132518326" y2="368.271737228"/><linearGradient id="s" gradientUnits="userSpaceOnUse" x1="256.00011" x2="256.00011" xlink:href="#a" y1="199.541562766" y2="245.7655449808"/><linearGradient id="t" gradientUnits="userSpaceOnUse" x1="219.7898481664" x2="299.0752908618" xlink:href="#a" y1="184.784411327" y2="384.522724603"/><linearGradient id="u" gradientUnits="userSpaceOnUse" x1="256.00011" x2="256.00011" xlink:href="#d" y1="289.7397379936" y2="330.1559310462"/><linearGradient id="v" gradientUnits="userSpaceOnUse" x1="200.928964768" x2="277.1531481088" xlink:href="#a" y1="72.628253331" y2="294.575329091"/><linearGradient id="w" gradientUnits="userSpaceOnUse" x1="206.124763079" x2="285.3330041726" y1="81.5690822708" y2="239.0075436456"><stop offset="0" stop-color="#8be1e2"/><stop offset=".1873" stop-color="#87e1e1"/><stop offset=".3558" stop-color="#7ce2dd"/><stop offset=".5172" stop-color="#6ae2d7"/><stop offset=".6741" stop-color="#50e4ce"/><stop offset=".8278" stop-color="#2fe5c2"/><stop offset=".9772" stop-color="#07e7b4"/><stop offset="1" stop-color="#00e7b2"/></linearGradient><linearGradient id="x" gradientUnits="userSpaceOnUse" x1="43.710261919" x2="508.178790907" xlink:href="#i" y1="39.090733038" y2="417.7029490562"/><linearGradient id="y" gradientUnits="userSpaceOnUse" x1="167.5944375034" x2="554.7108767836" xlink:href="#i" y1="-7.5190564014" y2="308.039428994"/><path d="m442.894531 131.949219c-1.941406-6.796875-8.15625-11.484375-15.222656-11.484375h-343.34375c-7.066406 0-13.28125 4.6875-15.222656 11.484375l-69.105469 241.847656v43.199219c0 6.183594 5.011719 11.195312 11.195312 11.195312h489.609376c6.183593 0 11.195312-5.011718 11.195312-11.195312v-43.199219zm0 0" fill="url(#b)"/><path d="m280.0625 373.796875c-.398438 12.964844-11.003906 23.355469-24.0625 23.355469s-23.664062-10.390625-24.0625-23.355469h-231.9375v43.199219c0 6.183594 5.011719 11.195312 11.195312 11.195312h489.609376c6.183593 0 11.195312-5.011718 11.195312-11.195312v-43.199219zm0 0" fill="url(#c)"/><path d="m0 402.359375v14.636719c0 6.183594 5.011719 11.195312 11.195312 11.195312h489.609376c6.183593 0 11.195312-5.011718 11.195312-11.195312v-14.636719zm0 0" fill="url(#e)"/><path d="m512 373.796875h-512l69.105469-241.847656c1.941406-6.796875 8.15625-11.484375 15.222656-11.484375h343.34375c7.066406 0 13.28125 4.6875 15.222656 11.484375zm0 0" fill="url(#f)"/><path d="m479.433594 259.820312-469.886719 80.574219 31.824219-111.394531 409.210937-70.164062zm0 0" fill="url(#h)"/><path d="m487.714844 288.804688-487.304688 83.554687 6.335938-22.164063 475.226562-81.488281zm0 0" fill="url(#j)"/><path d="m448.039062 149.953125-403.867187 69.25 6.335937-22.175781 391.640626-67.144532c.300781.664063.550781 1.355469.75 2.070313zm0 0" fill="url(#k)"/><g fill="#fff"><path d="m112.046875 301.394531-10.429687-60.828125c-.144532-.859375.226562-1.679687 1.121093-2.464844.894531-.78125 2.125-1.308593 3.6875-1.578124l25.410157-4.355469c8.683593-1.488281 15.890624-1.054688 21.617187 1.304687 5.726563 2.363282 9.1875 7.035156 10.382813 14.015625l.128906.738281c1.195312 6.980469-.59375 12.570313-5.375 16.761719-4.78125 4.195313-11.601563 7.050781-20.464844 8.570313l-16.15625 2.769531 3.890625 22.695313c.167969.984374-.371094 1.878906-1.617187 2.691406-1.246094.8125-2.828126 1.382812-4.738282 1.710937-1.824218.3125-3.480468.296875-4.96875-.046875-1.492187-.34375-2.320312-1.003906-2.488281-1.984375zm8.597656-32.785156 16.160157-2.769531c4.949218-.847656 8.601562-2.5 10.953124-4.953125 2.351563-2.449219 3.1875-5.667969 2.503907-9.648438l-.1875-1.105469c-.683594-3.980468-2.539063-6.71875-5.570313-8.21875-3.027344-1.5-7.019531-1.824218-11.96875-.976562l-16.160156 2.773438zm0 0"/><path d="m183.0625 289.214844-10.429688-60.828125c-.175781-1.039063.359376-1.9375 1.621094-2.6875 1.253906-.75 2.839844-1.292969 4.75-1.621094 1.910156-.324219 3.585938-.34375 5.023438-.054687 1.433594.289062 2.242187.957031 2.421875 1.996093l10.429687 60.828125c.164063.980469-.375 1.878906-1.621094 2.691406-1.246093.8125-2.824218 1.382813-4.734374 1.710938-1.824219.3125-3.484376.296875-4.972657-.046875-1.492187-.34375-2.320312-1.003906-2.488281-1.988281zm0 0"/><path d="m207.882812 285.339844c-.199218-1.164063.082032-2.378906.851563-3.644532l31.429687-59.210937-35.3125 6.054687c-1.390624.238282-2.570312.015626-3.535156-.671874-.96875-.683594-1.554687-1.636719-1.765625-2.863282-.199219-1.164062.019531-2.242187.652344-3.234375.636719-.992187 1.691406-1.613281 3.167969-1.867187l48.601562-8.332032c2.953125-.507812 4.589844.15625 4.902344 1.996094.191406 1.101563-.125 2.386719-.949219 3.851563l-31.441406 59.117187 39.480469-6.769531c1.390625-.238281 2.574218.015625 3.550781.761719.976563.75 1.5625 1.671875 1.75 2.773437.1875 1.105469-.054687 2.171875-.726563 3.199219-.671874 1.03125-1.703124 1.664062-3.09375 1.902344l-52.773437 9.046875c-2.867187.492187-4.460937-.210938-4.789063-2.109375zm0 0"/><path d="m274.078125 273.992188c-.199219-1.164063.082031-2.378907.851563-3.648438l31.429687-59.207031-35.3125 6.054687c-1.390625.238282-2.570313.015625-3.535156-.671875-.96875-.683593-1.558594-1.640625-1.769531-2.867187-.199219-1.164063.019531-2.238282.65625-3.230469.632812-.992187 1.6875-1.617187 3.164062-1.871094l48.605469-8.332031c2.953125-.503906 4.585937.160156 4.902343 1.996094.1875 1.105468-.128906 2.386718-.949218 3.851562l-31.445313 59.117188 39.480469-6.769532c1.390625-.238281 2.574219.019532 3.550781.765626.976563.746093 1.5625 1.671874 1.75 2.773437.191407 1.101563-.050781 2.167969-.722656 3.199219-.675781 1.027344-1.707031 1.660156-3.097656 1.898437l-52.769531 9.050781c-2.867188.492188-4.464844-.210937-4.789063-2.109374zm0 0"/><path d="m339.585938 261.535156c-.0625-.367187-.066407-.648437-.007813-.847656l15.664063-63.992188c.726562-2.390624 3.625-4.023437 8.695312-4.890624 5.160156-.886719 8.472656-.398438 9.929688 1.464843l36.011718 55.121094c.238282.355469.375.628906.410156.820313.195313 1.152343-.648437 2.324218-2.527343 3.503906-1.882813 1.179687-3.957031 1.964844-6.226563 2.355468-2.742187.46875-4.558594.09375-5.449218-1.125l-7.652344-12.238281-32.027344 5.492188-3.082031 14.042969c-.371094 1.460937-1.859375 2.410156-4.460938 2.859374-2.082031.355469-4.097656.292969-6.054687-.191406-1.960938-.480468-3.03125-1.273437-3.222656-2.375zm18.628906-22.589844 25.863281-4.4375-18.46875-29.296874zm0 0"/></g><path d="m442.894531 71.71875c-1.941406-6.800781-8.15625-11.484375-15.222656-11.484375h-343.34375c-7.066406 0-13.28125 4.683594-15.222656 11.484375l-69.105469 241.847656v43.195313c0 6.183593 5.011719 11.195312 11.195312 11.195312h489.609376c6.183593 0 11.195312-5.011719 11.195312-11.195312v-43.195313zm0 0" fill="url(#l)"/><path d="m280.0625 313.566406c-.398438 12.960938-11.003906 23.351563-24.0625 23.351563s-23.664062-10.390625-24.0625-23.351563h-231.9375v43.195313c0 6.183593 5.011719 11.195312 11.195312 11.195312h489.609376c6.183593 0 11.195312-5.011719 11.195312-11.195312v-43.195313zm0 0" fill="url(#m)"/><path d="m0 342.125v14.636719c0 6.183593 5.011719 11.195312 11.195312 11.195312h489.609376c6.183593 0 11.195312-5.011719 11.195312-11.195312v-14.636719zm0 0" fill="url(#n)"/><path d="m512 313.566406h-512l69.105469-241.847656c1.941406-6.800781 8.15625-11.484375 15.222656-11.484375h343.34375c7.066406 0 13.28125 4.683594 15.222656 11.484375zm0 0" fill="url(#o)"/><path d="m479.433594 199.589844-469.886719 80.574218 31.824219-111.394531 409.210937-70.164062zm0 0" fill="url(#p)"/><path d="m487.714844 228.570312-487.304688 83.558594 6.335938-22.167968 475.226562-81.488282zm0 0" fill="url(#q)"/><path d="m448.039062 89.71875-403.867187 69.25 6.335937-22.175781 391.640626-67.140625c.300781.660156.550781 1.355468.75 2.066406zm0 0" fill="url(#r)"/><path d="m112.046875 241.160156-10.429687-60.828125c-.144532-.855469.226562-1.675781 1.121093-2.460937s2.125-1.308594 3.6875-1.578125l25.410157-4.355469c8.683593-1.492188 15.890624-1.054688 21.617187 1.304688 5.726563 2.359374 9.1875 7.03125 10.382813 14.015624l.128906.734376c1.195312 6.984374-.59375 12.574218-5.375 16.765624-4.78125 4.191407-11.601563 7.046876-20.464844 8.566407l-16.15625 2.773437 3.890625 22.695313c.167969.980469-.371094 1.878906-1.617187 2.6875-1.246094.816406-2.828126 1.386719-4.738282 1.710937-1.824218.316406-3.480468.300782-4.96875-.042968-1.492187-.34375-2.320312-1.007813-2.488281-1.988282zm8.597656-32.78125 16.160157-2.769531c4.949218-.851563 8.601562-2.5 10.953124-4.953125 2.351563-2.453125 3.1875-5.667969 2.503907-9.652344l-.1875-1.101562c-.683594-3.980469-2.539063-6.722656-5.570313-8.222656-3.027344-1.496094-7.019531-1.820313-11.96875-.972657l-16.160156 2.769531zm0 0" fill="#fff"/><path d="m183.0625 228.984375-10.429688-60.828125c-.175781-1.042969.359376-1.9375 1.621094-2.691406 1.253906-.75 2.839844-1.289063 4.75-1.617188s3.585938-.347656 5.023438-.058594c1.433594.292969 2.242187.957032 2.421875 2l10.429687 60.828126c.164063.980468-.375 1.875-1.621094 2.6875-1.246093.816406-2.824218 1.382812-4.734374 1.710937-1.824219.3125-3.484376.300781-4.972657-.046875-1.492187-.339844-2.320312-1.003906-2.488281-1.984375zm0 0" fill="#fff"/><path d="m207.882812 225.105469c-.199218-1.160157.082032-2.375.851563-3.644531l31.429687-59.207032-35.3125 6.054688c-1.390624.238281-2.570312.015625-3.535156-.671875-.96875-.6875-1.554687-1.640625-1.765625-2.867188-.199219-1.164062.019531-2.238281.652344-3.234375.636719-.988281 1.691406-1.613281 3.167969-1.867187l48.601562-8.332031c2.953125-.503907 4.589844.160156 4.902344 1.996093.191406 1.105469-.125 2.386719-.949219 3.851563l-31.441406 59.121094 39.480469-6.769532c1.390625-.238281 2.574218.015625 3.550781.761719s1.5625 1.671875 1.75 2.773437c.1875 1.101563-.054687 2.167969-.726563 3.199219-.671874 1.027344-1.703124 1.664063-3.09375 1.902344l-52.773437 9.046875c-2.867187.492188-4.460937-.210938-4.789063-2.113281zm0 0" fill="#fff"/><path d="m274.078125 213.757812c-.199219-1.164062.082031-2.378906.851563-3.644531l31.429687-59.210937-35.3125 6.054687c-1.390625.238281-2.570313.015625-3.535156-.667969-.96875-.6875-1.558594-1.640624-1.769531-2.867187-.199219-1.164063.019531-2.242187.65625-3.234375.632812-.992188 1.6875-1.613281 3.164062-1.867188l48.605469-8.332031c2.953125-.507812 4.585937.15625 4.902343 1.996094.1875 1.101563-.128906 2.386719-.949218 3.851563l-31.445313 59.117187 39.484375-6.769531c1.386719-.238282 2.570313.019531 3.550782.761718.976562.75 1.558593 1.671876 1.75 2.777344.1875 1.101563-.054688 2.167969-.726563 3.195313-.675781 1.03125-1.707031 1.664062-3.09375 1.902343l-52.773437 9.050782c-2.867188.488281-4.464844-.214844-4.789063-2.113282zm0 0" fill="#fff"/><path d="m339.585938 201.304688c-.0625-.367188-.066407-.652344-.007813-.851563l15.664063-63.988281c.726562-2.394532 3.625-4.023438 8.695312-4.894532 5.160156-.886718 8.472656-.394531 9.929688 1.46875l36.011718 55.117188c.238282.355469.375.628906.410156.820312.195313 1.15625-.648437 2.324219-2.527343 3.503907-1.882813 1.183593-3.957031 1.96875-6.226563 2.355469-2.742187.46875-4.558594.097656-5.449218-1.125l-7.652344-12.234376-32.027344 5.492188-3.082031 14.039062c-.371094 1.460938-1.859375 2.414063-4.460938 2.859376-2.082031.355468-4.097656.296874-6.054687-.1875-1.960938-.484376-3.03125-1.273438-3.222656-2.375zm18.628906-22.59375 25.863281-4.433594-18.46875-29.296875zm0 0" fill="#fff"/><path d="m442.894531 11.484375c-1.941406-6.796875-8.15625-11.484375-15.222656-11.484375h-343.34375c-7.066406 0-13.28125 4.6875-15.222656 11.484375l-69.105469 241.847656v43.199219c0 6.183594 5.011719 11.195312 11.195312 11.195312h489.609376c6.183593 0 11.195312-5.011718 11.195312-11.195312v-43.199219zm0 0" fill="url(#s)"/><path d="m280.0625 253.332031c-.398438 12.964844-11.003906 23.355469-24.0625 23.355469s-23.664062-10.390625-24.0625-23.355469h-231.9375v43.199219c0 6.183594 5.011719 11.195312 11.195312 11.195312h489.609376c6.183593 0 11.195312-5.011718 11.195312-11.195312v-43.199219zm0 0" fill="url(#t)"/><path d="m0 281.894531v14.636719c0 6.183594 5.011719 11.195312 11.195312 11.195312h489.609376c6.183593 0 11.195312-5.011718 11.195312-11.195312v-14.636719zm0 0" fill="url(#u)"/><path d="m512 253.332031h-512l69.105469-241.847656c1.941406-6.796875 8.15625-11.484375 15.222656-11.484375h343.34375c7.066406 0 13.28125 4.6875 15.222656 11.484375zm0 0" fill="url(#v)"/><path d="m479.433594 139.355469-469.886719 80.574219 31.824219-111.394532 409.210937-70.164062zm0 0" fill="url(#w)"/><path d="m487.714844 168.339844-487.304688 83.554687 6.335938-22.164062 475.226562-81.488281zm0 0" fill="url(#x)"/><path d="m448.039062 29.488281-403.867187 69.25 6.335937-22.175781 391.640626-67.144531c.300781.664062.550781 1.355469.75 2.070312zm0 0" fill="url(#y)"/><path d="m112.046875 180.929688-10.429687-60.828126c-.144532-.859374.226562-1.679687 1.121093-2.464843.894531-.78125 2.125-1.308594 3.6875-1.578125l25.410157-4.355469c8.683593-1.488281 15.890624-1.054687 21.617187 1.304687 5.726563 2.363282 9.1875 7.035157 10.382813 14.015626l.128906.738281c1.195312 6.980469-.59375 12.570312-5.375 16.761719-4.78125 4.195312-11.601563 7.050781-20.464844 8.570312l-16.15625 2.769531 3.890625 22.695313c.167969.984375-.371094 1.878906-1.617187 2.691406-1.246094.8125-2.828126 1.382812-4.738282 1.710938-1.824218.3125-3.480468.300781-4.96875-.046876-1.492187-.34375-2.320312-1.003906-2.488281-1.984374zm8.597656-32.78125 16.160157-2.773438c4.949218-.847656 8.601562-2.5 10.953124-4.953125 2.351563-2.449219 3.1875-5.667969 2.503907-9.648437l-.1875-1.105469c-.683594-3.980469-2.539063-6.71875-5.570313-8.21875-3.027344-1.5-7.019531-1.824219-11.96875-.976563l-16.160156 2.773438zm0 0" fill="#fff"/><path d="m183.0625 168.753906-10.429688-60.832031c-.175781-1.039063.359376-1.9375 1.621094-2.6875 1.253906-.75 2.839844-1.292969 4.75-1.621094 1.910156-.324219 3.585938-.34375 5.023438-.054687 1.433594.289062 2.242187.957031 2.421875 1.996094l10.429687 60.828124c.164063.980469-.375 1.878907-1.621094 2.691407-1.246093.8125-2.824218 1.382812-4.734374 1.710937-1.824219.3125-3.484376.296875-4.972657-.046875-1.492187-.34375-2.320312-1.003906-2.488281-1.984375zm0 0" fill="#fff"/><path d="m207.882812 164.875c-.199218-1.164062.082032-2.378906.851563-3.644531l31.429687-59.210938-35.3125 6.054688c-1.390624.238281-2.570312.015625-3.535156-.667969-.96875-.6875-1.554687-1.640625-1.765625-2.867188-.199219-1.164062.019531-2.242187.652344-3.234374.636719-.992188 1.691406-1.613282 3.167969-1.867188l48.601562-8.332031c2.953125-.507813 4.589844.15625 4.902344 1.996093.191406 1.101563-.125 2.386719-.949219 3.851563l-31.441406 59.117187 39.480469-6.769531c1.390625-.238281 2.574218.015625 3.550781.761719.976563.75 1.5625 1.671875 1.75 2.777344.1875 1.101562-.054687 2.167968-.726563 3.195312-.671874 1.03125-1.703124 1.664063-3.09375 1.902344l-52.773437 9.046875c-2.867187.492187-4.460937-.210937-4.789063-2.109375zm0 0" fill="#fff"/><path d="m274.078125 153.527344c-.199219-1.164063.082031-2.378906.851563-3.648438l31.429687-59.207031-35.3125 6.054687c-1.390625.238282-2.570313.015626-3.535156-.671874-.96875-.683594-1.558594-1.640626-1.769531-2.867188-.199219-1.160156.019531-2.238281.65625-3.230469.632812-.992187 1.6875-1.617187 3.164062-1.867187l48.605469-8.335938c2.953125-.503906 4.585937.160156 4.902343 1.996094.1875 1.105469-.128906 2.386719-.949218 3.851562l-31.445313 59.121094 39.484375-6.769531c1.386719-.238281 2.570313.015625 3.550782.761719.976562.746094 1.558593 1.671875 1.75 2.773437.1875 1.101563-.054688 2.167969-.726563 3.199219-.675781 1.03125-1.707031 1.664062-3.09375 1.902344l-52.773437 9.046875c-2.867188.492187-4.464844-.210938-4.789063-2.109375zm0 0" fill="#fff"/><path d="m339.585938 141.070312c-.0625-.367187-.066407-.648437-.007813-.847656l15.664063-63.992187c.726562-2.390625 3.625-4.023438 8.695312-4.890625 5.160156-.886719 8.472656-.398438 9.929688 1.464844l36.011718 55.121093c.238282.355469.375.628907.410156.820313.195313 1.15625-.648437 2.324218-2.527343 3.503906-1.882813 1.179688-3.957031 1.964844-6.226563 2.355469-2.742187.46875-4.558594.09375-5.449218-1.125l-7.652344-12.238281-32.027344 5.492187-3.082031 14.042969c-.371094 1.460937-1.859375 2.410156-4.460938 2.859375-2.082031.355469-4.097656.292969-6.054687-.191407-1.960938-.480468-3.03125-1.273437-3.222656-2.375zm18.628906-22.589843 25.863281-4.4375-18.46875-29.296875zm0 0" fill="#fff"/></svg>