<svg id="Capa_1" enable-background="new 0 0 512 512" height="512" viewBox="0 0 512 512" width="512" xmlns="http://www.w3.org/2000/svg"><g><g><path d="m419.245 330.044h-110.48c-9.662 0-17.494-7.833-17.494-17.494 0-9.662 7.833-17.494 17.494-17.494h110.48c19.293 0 34.989-15.696 34.989-34.989v-104.173c0-19.293-15.696-34.989-34.989-34.989h-111.199c-9.662 0-17.494-7.833-17.494-17.494s7.833-17.494 17.494-17.494h111.199c38.585 0 69.977 31.392 69.977 69.977v104.173c0 38.586-31.392 69.977-69.977 69.977z" fill="#d5e3f4"/></g><path d="m402.315 345.677-29.602-108.247c-11.858-43.362-15.26-88.336-10.044-132.806l11.188-95.394c.576-4.913-3.264-9.23-8.212-9.23-16.437 0-309.609 0-326.134 0-6.849 0-10.728 7.85-6.567 13.291 27.351 35.757 42.17 79.523 42.17 124.542v4.66c0 38.009-4.904 47.303-47.532 203.185-11.942 42.872-1.371 88.067 28.936 123.71 12.846 15.107 28.859 28.043 47.227 38.149l8.112 4.463h206.182l8.112-4.463c18.368-10.106 34.382-23.042 47.227-38.149 30.307-35.644 40.878-80.839 28.937-123.711z" fill="#e5eef9"/><path d="m122.247 477.012c-48.878-27.297-70.9-76.532-58.069-122.598 30.65-112.078 48.729-163.078 48.729-251.002h204.082c0 87.827 17.955 138.471 48.729 251.002 12.915 46.369-9.507 95.478-58.069 122.598z" fill="#98bce5"/><path d="m402.315 345.677-29.602-108.247c-11.858-43.362-15.26-88.336-10.044-132.806l11.188-95.394c.576-4.913-3.264-9.23-8.212-9.23-16.437 0-309.609 0-326.134 0-6.849 0-10.728 7.85-6.567 13.291 27.351 35.757 42.17 79.523 42.17 124.542v4.66c0 38.009-4.904 47.303-47.532 203.185-11.942 42.872-1.371 88.067 28.936 123.71 12.846 15.107 28.859 28.043 47.227 38.149l8.112 4.463h206.182l8.112-4.463c18.368-10.106 34.382-23.042 47.227-38.149 30.307-35.644 40.878-80.839 28.937-123.711z" fill="#e5eef9"/><path d="m122.247 477.012c-48.878-27.297-70.9-76.532-58.069-122.598 30.65-112.078 48.729-163.078 48.729-251.002h204.082c0 87.827 17.955 138.471 48.729 251.002 12.915 46.369-9.507 95.478-58.069 122.598z" fill="#98bce5"/><path d="m402.315 345.677-29.602-108.247c-11.858-43.362-15.26-88.336-10.044-132.806l11.188-95.394c.576-4.913-3.264-9.23-8.212-9.23-3.258 0-17.393 0-38.083 0 4.948 0 8.788 4.317 8.211 9.231l-11.188 95.394c-5.215 44.469-1.814 89.443 10.044 132.806l29.602 108.247c11.942 42.872 1.371 88.067-28.936 123.71-12.846 15.108-28.859 28.043-47.227 38.149l-8.112 4.463h38.083l8.112-4.463c18.368-10.106 34.382-23.042 47.227-38.149 30.307-35.644 40.878-80.839 28.937-123.711z" fill="#d5e3f4"/><path d="m365.719 354.413c-30.774-112.531-48.729-163.175-48.729-251.002h-41.013c0 87.827 17.955 138.471 48.729 251.002 12.915 46.369-9.507 95.479-58.069 122.598h41.013c48.562-27.119 70.984-76.228 58.069-122.598z" fill="#7bacdf"/></g></svg>