<svg id="Layer_1" enable-background="new 0 0 497.4 497.4" height="512" viewBox="0 0 497.4 497.4" width="512" xmlns="http://www.w3.org/2000/svg"><g><g><g><g><path d="m356.369 447.482-25.225-19.806-20.567 21.993-20.567-21.993-20.567 21.993-20.564-21.993-20.565 21.993-20.569-21.993-20.566 21.993-20.567-21.993-20.568 21.993-20.57-21.993-20.571 21.993-20.571-21.993-20.571 21.993-20.575-21.993-25.231 19.807v-445.296l25.226 19.807 20.566-21.994 20.568 21.994 20.567-21.994 20.563 21.994 20.566-21.994 20.569 21.994 20.565-21.994 20.568 21.994 20.568-21.994 20.57 21.994 20.571-21.994 20.57 21.994 20.572-21.994 20.574 21.994 25.231-19.808z" fill="#ff6363"/><g><path d="m331.138 21.994-14.769-15.789v437.271l14.775-15.8 25.225 19.806v-445.296z" fill="#f74d4d"/></g><path d="m356.369 447.482-25.225-19.806-20.567 21.993-20.567-21.993-20.567 21.993-20.564-21.993-20.565 21.993-20.569-21.993-20.566 21.993-20.567-21.993-20.568 21.993-20.57-21.993-20.571 21.993-20.571-21.993-20.571 21.993-20.575-21.993-25.231 19.807v-445.296l25.226 19.807 20.566-21.994 20.568 21.994 20.567-21.994 20.563 21.994 20.566-21.994 20.569 21.994 20.565-21.994 20.568 21.994 20.568-21.994 20.57 21.994 20.571-21.994 20.57 21.994 20.572-21.994 20.574 21.994 25.231-19.808z" fill="none"/></g><path d="m17.955 65.002h338.414v319.666h-338.414z" fill="#ff9696"/><path d="m316.369 65.002h40v319.666h-40z" fill="#ff8080"/><g><ellipse cx="187.162" cy="224.835" fill="#fff9eb" rx="105.633" ry="105.038"/><g><g><path d="m297.462 269.644h-220.6c-12.227 0-22.139-9.912-22.139-22.139v-.112c0-37.207 30.162-67.369 67.369-67.369h130.139c37.207 0 67.369 30.162 67.369 67.369v.112c0 12.227-9.912 22.139-22.138 22.139z" fill="#cf7a15"/></g><path d="m252.231 180.025h-40c37.207 0 67.369 30.162 67.369 67.369v.112c0 12.227-9.912 22.139-22.139 22.139h40c12.227 0 22.139-9.912 22.139-22.139v-.112c0-37.207-30.162-67.369-67.369-67.369z" fill="#c4710e"/><g fill="#a1550a"><path d="m144.911 180.025v26.169c0 7.09-5.737 12.838-12.814 12.838s-12.814-5.748-12.814-12.838v-26.169z"/><path d="m199.976 180.025v34.727c0 7.09-5.737 12.838-12.814 12.838s-12.814-5.748-12.814-12.838v-34.727z"/><path d="m255.041 180.025v26.169c0 7.09-5.737 12.838-12.814 12.838s-12.814-5.748-12.814-12.838v-26.169z"/></g></g></g></g></g><g><path d="m229.213 484.434c78.88 17.242 161.259 17.288 240.159.139 8.217-1.786 12.49-10.913 8.647-18.392-13.57-26.407-42.537-79.22-57.161-79.22-11.999 0-25.499 23.132-35.998 23.132s-50.997-95.251-74.996-93.89c-19.627 1.113-71.36 110.535-89.554 150.361-3.396 7.433.92 16.125 8.903 17.87z" fill="#fff4db"/><g fill="#ffecbf"><path d="m344.86 410.094c7.401 0 16.292-11.486 25.097-18.27-17.031-27.589-42.831-76.599-60.093-75.62-4.554.258-10.839 6.354-18.03 16.053 21.592 26.826 45.342 77.837 53.026 77.837z"/><path d="m478.019 466.181c-13.57-26.407-42.537-79.22-57.161-79.22-7.048 0-14.612 7.978-21.783 14.564 13.942 17.592 29.879 47.015 38.944 64.656 3.843 7.479-.43 16.606-8.647 18.392-32.813 7.132-66.228 11.279-99.742 12.463 46.843 1.651 93.88-2.495 139.742-12.463 8.217-1.786 12.49-10.913 8.647-18.392z"/></g><g><path d="m303.47 384.618c9.652 0 9.668-15 0-15-9.651 0-9.667 15 0 15z" fill="#edcb7e"/></g><g><path d="m345.468 439.047c9.652 0 9.668-15 0-15-9.651 0-9.667 15 0 15z" fill="#edcb7e"/></g><g><path d="m285.471 458.098c9.652 0 9.668-15 0-15-9.651 0-9.667 15 0 15z" fill="#edcb7e"/></g><g><path d="m426.464 448.572c9.652 0 9.668-15 0-15-9.651 0-9.667 15 0 15z" fill="#edcb7e"/></g></g></g></svg>